<?xml version="1.0" encoding="UTF-8"?>
<svg width="1200pt" height="1200pt" version="1.1" viewBox="0 0 1200 1200" xmlns="http://www.w3.org/2000/svg">
 <path d="m599.99 0c-328.11-0.21484-594.19 268.5-594.49 599.69 0.29688 331.74 266.38 600.42 594.49 600.31 328.25 0.10938 594.28-268.57 594.5-600.31-0.22656-331.19-266.27-599.9-594.5-599.69zm0 1061.8c-252.48 0-457.16-206.77-456.9-462.1-0.27734-254.79 204.42-461.53 456.9-461.44 252.59-0.097656 457.3 206.66 457.57 461.45-0.27344 255.31-204.99 462.09-457.57 462.09z"/>
 <path d="m538.32 811.88 134.38-0.60937v-103.88c-0.3125-28.211 12.816-54.863 48.012-77.867 35.258-23.172 133.55-70.008 133.7-193.41-0.15625-122.94-103.38-207.6-190.19-225.84-86.699-17.688-180.7-5.8672-247.26 67.5-59.855 65.125-72.445 116.9-72.684 231.05h134.34v-26.605c-0.26562-60.742 6.7812-124.97 93.469-142.79 47.688-9.3242 92.184 5.543 118.77 31.176 29.977 29.688 30.203 96.18-18.156 129.14l-75.301 51.277c-43.859 28.43-58.957 59.809-59.062 105.76v155.1z"/>
 <path d="m537.7 1002.1v-137.58h135.64v137.58z"/>
</svg>
